<svg width="212" height="61" viewBox="0 0 212 61" fill="none" xmlns="http://www.w3.org/2000/svg">
<g clip-path="url(#clip0_4016_2808)">
<path d="M77.4447 39.964C77.0369 40.438 73.0357 44.7993 63.8503 44.7993H63.6335C61.9452 44.7989 60.2628 44.5979 58.6219 44.2004L58.4162 44.1526C58.3725 44.1449 58.3295 44.1339 58.2876 44.1195L57.9202 44.0167C57.6814 43.9505 57.4499 43.877 57.2258 43.7999C56.9134 43.697 56.6122 43.5831 56.3182 43.4692C59.2462 39.3824 61.2108 34.6858 62.0646 29.7315C62.4096 27.707 62.4714 25.6444 62.2484 23.6029C62.1756 22.9732 62.0639 22.3486 61.914 21.7327C60.6427 16.4419 56.851 13.2344 51.6851 13.2344C49.4732 13.2335 47.3312 14.007 45.6301 15.4205C42.3711 18.077 40.3135 22.9379 40.2915 28.8606C40.2558 33.4907 41.5668 38.0314 44.0649 41.9297L44.3992 42.4257C44.4984 42.5654 44.6013 42.705 44.7042 42.8373C44.807 42.9695 44.9026 43.1091 45.0018 43.2377C45.3141 43.6566 45.6521 44.0644 46.0085 44.4612C45.1792 45.1163 44.3037 45.7108 43.3888 46.2395C42.2472 46.9016 41.0439 47.4502 39.7955 47.8782C39.248 48.0656 38.6932 48.2456 38.1237 48.3632C36.2519 48.8508 34.2907 48.885 32.4031 48.4624H32.3663C31.8931 48.3471 31.4279 48.2012 30.9738 48.0252C31.8331 46.668 32.5567 45.2291 33.1342 43.7301C34.2983 40.7393 34.8735 37.5516 34.828 34.3426C34.8121 31.5127 34.1604 28.7226 32.9211 26.1785C30.9775 22.328 27.7075 20.061 23.9561 19.9545C22.1771 19.8638 20.4113 20.3045 18.8835 21.2205C17.3558 22.1365 16.1351 23.4864 15.3769 25.0983C14.8125 26.2588 14.4248 27.4973 14.2269 28.7725C13.2532 34.6512 15.3842 42.367 19.8557 47.9554L19.977 48.106C20.2415 48.433 20.506 48.7417 20.7779 49.0466V49.065C18.3988 50.7852 15.6851 51.9867 12.8123 52.5922C11.9232 52.7906 10.9753 52.9596 9.9869 53.0772C6.92492 53.4178 3.83373 53.4005 0.775749 53.0257L0.0078125 59.8781C1.90093 60.0941 3.80474 60.2032 5.71013 60.2051C7.80128 60.2124 9.88976 60.0552 11.9562 59.7348C12.2428 59.6944 12.5184 59.6466 12.794 59.5915C18.9115 58.4892 23.258 56.0239 26.2818 53.4373C30.4043 55.6704 35.2199 56.2587 39.7587 55.0833C40.8984 54.8048 42.0191 54.4528 43.1132 54.0288C44.7802 53.3818 46.3803 52.5735 47.8897 51.6149C49.187 50.7918 50.4157 49.8656 51.5638 48.8445C54.8228 50.6192 58.824 51.6883 63.5968 51.7251H63.8613C76.9561 51.7251 82.6768 44.5237 82.9156 44.2151L77.4447 39.964ZM27.3106 39.5452C26.8905 41.0564 26.2728 42.5055 25.4736 43.855L25.2751 43.6125C24.8401 43.0691 24.4366 42.5011 24.0663 41.9114L23.879 41.6064C23.8609 41.5822 23.8449 41.5561 23.8312 41.5292L23.7945 41.4668C23.7757 41.4396 23.7585 41.4113 23.743 41.3823C21.6781 37.8992 20.7596 33.9788 20.9176 31.0358C20.9382 30.0345 21.1632 29.048 21.5789 28.1368C21.7403 27.7216 22.0311 27.3694 22.4083 27.1325C22.7855 26.8956 23.2291 26.7865 23.6732 26.8215H23.7981C25.2898 26.8656 26.2598 28.1736 26.8036 29.2612C27.429 30.5816 27.8028 32.007 27.9059 33.4644C28.0773 35.5107 27.8756 37.5711 27.3106 39.5452ZM55.3115 28.5925C54.7189 32.0179 53.4432 35.2891 51.5602 38.2115C51.2956 38.6303 51.0201 39.0345 50.7408 39.4313C48.213 36.3854 47.1695 32.476 47.1842 28.8717C47.1842 24.9477 48.5327 21.6152 50.355 20.5056C50.753 20.2528 51.2137 20.1165 51.6851 20.1124C52.3685 20.1124 53.9447 20.1125 54.8486 22.17C55.1429 22.8874 55.3324 23.6435 55.4107 24.4149C55.5625 25.806 55.5253 27.2113 55.3005 28.5925H55.3115Z" fill="#37007F"/>
<path d="M22.2326 18.3637C25.39 18.3637 27.9497 15.8041 27.9497 12.6467C27.9497 9.48927 25.39 6.92969 22.2326 6.92969C19.0752 6.92969 16.5156 9.48927 16.5156 12.6467C16.5156 15.8041 19.0752 18.3637 22.2326 18.3637Z" fill="#7C00FF"/>
<path d="M51.3498 11.4653C54.5074 11.4653 57.0669 8.90571 57.0669 5.74827C57.0669 2.59085 54.5074 0.03125 51.3498 0.03125C48.1922 0.03125 45.6328 2.59085 45.6328 5.74827C45.6328 8.90571 48.1922 11.4653 51.3498 11.4653Z" fill="#7C00FF"/>
<path d="M58.4141 44.1562L58.6161 44.2068C58.5404 44.1923 58.479 44.1779 58.4141 44.1562Z" fill="#0AC786"/>
<path d="M44.0703 41.9219C44.1805 42.0909 44.2944 42.2526 44.4083 42.4179C44.2944 42.2562 44.1805 42.0762 44.0703 41.9219Z" fill="#0AC786"/>
<path d="M26.2892 53.4306C24.2408 52.26 22.3824 50.7845 20.778 49.0547C18.3271 50.8223 15.5256 52.044 12.5625 52.637L12.4853 52.6554L11.8277 52.784L11.6292 52.8207C11.4124 52.8611 11.1957 52.8942 10.9753 52.9309L10.832 52.953C10.5564 52.9934 10.2735 53.0338 9.9869 53.0669C6.92466 53.4042 3.83372 53.3858 0.775749 53.0118L0.0078125 59.8641C1.90087 60.0813 3.80466 60.1919 5.71012 60.1948C7.80121 60.2003 9.88957 60.0431 11.9562 59.7245C12.2428 59.6804 12.5184 59.6326 12.794 59.5812C18.9152 58.4753 23.2654 56.0136 26.2892 53.4306Z" fill="#7C00FF"/>
<path d="M33.5798 42.4612C33.6864 42.1305 33.7893 41.8035 33.8811 41.4692C33.8811 41.4435 33.8811 41.4214 33.9068 41.3957C34.0023 41.0283 34.0942 40.6866 34.175 40.3339L34.2412 40.0363C34.3 39.7717 34.3551 39.5109 34.4028 39.2463C34.4249 39.1361 34.4433 39.0259 34.4616 38.9156C34.5204 38.5997 34.5682 38.28 34.6123 37.9604C34.6123 37.9236 34.6123 37.8869 34.6123 37.8501C34.6564 37.5011 34.6931 37.1557 34.7225 36.8067C34.7225 36.6927 34.7225 36.5752 34.7482 36.4613C34.7482 36.2188 34.7776 35.9763 34.7886 35.7264C34.7886 35.6015 34.7886 35.4766 34.7886 35.359C34.7886 35.0798 34.7886 34.7968 34.7886 34.5176C34.7886 34.4552 34.7886 34.3964 34.7886 34.3339C34.7723 31.5041 34.1206 28.7141 32.8817 26.1699C30.9381 22.323 27.6681 20.0524 23.9168 19.9495C22.1375 19.8574 20.3711 20.2974 18.843 21.2136C17.315 22.1298 16.0945 23.4805 15.3375 25.0933C14.7734 26.254 14.3858 27.4924 14.1875 28.7675L20.8415 31.0676C20.8616 30.0674 21.0867 29.082 21.5028 28.1723C21.6631 27.7564 21.9538 27.4035 22.3312 27.1664C22.7087 26.9293 23.1528 26.8208 23.5971 26.857H23.722C25.2137 26.8974 26.1837 28.209 26.7275 29.2929C27.3528 30.6147 27.7266 32.0413 27.8297 33.4999V33.6395C27.8297 33.8011 27.8518 33.9665 27.8591 34.1318C27.8665 34.2972 27.8591 34.3706 27.8591 34.4992C27.8591 34.6278 27.8591 34.6976 27.8591 34.8005C27.8591 34.9034 27.8591 35.0614 27.8591 35.1937C27.8591 35.3259 27.8591 35.381 27.8591 35.4729C27.8591 35.5648 27.8591 35.7448 27.8591 35.8844L27.8371 36.1563C27.8371 36.2996 27.8371 36.4392 27.804 36.5788L27.771 36.8544C27.7452 37.0859 27.7122 37.3174 27.6754 37.5525C27.6534 37.6811 27.635 37.8134 27.6093 37.9457C27.5835 38.0779 27.5689 38.1588 27.5468 38.2653L27.4586 38.6878C27.4366 38.7834 27.4109 38.8826 27.3851 38.9818C27.3484 39.1387 27.308 39.2967 27.2639 39.4557C26.8398 41.0125 26.2083 42.5053 25.3864 43.8941C26.7055 45.5255 28.6932 47.4985 30.8977 48.0496C31.7552 46.6906 32.4776 45.2507 33.0544 43.7509L33.0948 43.6406C33.2051 43.343 33.3153 43.0454 33.4145 42.7441L33.5798 42.4612Z" fill="url(#paint0_linear_4016_2808)"/>
<path d="M82.8846 44.186C82.6458 44.4947 76.9251 51.6961 63.8303 51.6961H63.5658C59.0208 51.663 55.174 50.693 52.0068 49.0617H51.9848C51.8305 48.9882 51.6835 48.9074 51.5329 48.8265C50.3167 48.0696 47.2965 45.5675 45.9922 44.4726H46.0143C45.6468 44.0758 45.3198 43.668 45.0075 43.2491C44.9083 43.1205 44.8055 42.9883 44.7099 42.8486C44.6144 42.709 44.5042 42.5767 44.405 42.4371L44.0706 41.9411C41.5652 38.0362 40.2513 33.4859 40.2899 28.8464C40.3119 22.9236 42.3695 18.0627 45.6285 15.4062C47.1533 17.0413 49.0308 19.0621 50.3535 20.506C48.5164 21.6083 47.1937 24.9481 47.1826 28.8721C47.1536 31.6527 47.7962 34.3992 49.0565 36.8781L49.141 37.0434C49.2034 37.1684 49.2733 37.3006 49.3504 37.4292C49.5936 37.8587 49.8626 38.2736 50.1551 38.6711C50.2359 38.7887 50.3204 38.9026 50.4049 39.0128C50.4894 39.123 50.5886 39.2479 50.6878 39.3802L50.7392 39.4463C52.2181 41.2511 54.1382 42.6432 56.313 43.4879C56.6069 43.6018 56.9082 43.7157 57.2205 43.8186C57.4446 43.8958 57.6761 43.9693 57.9149 44.0354L58.2823 44.1383C58.3242 44.1526 58.3672 44.1636 58.4109 44.1713L58.6167 44.2191C60.2576 44.6167 61.94 44.8176 63.6283 44.818H63.845C73.0525 44.818 77.0353 40.4567 77.4395 39.9828L82.8846 44.186Z" fill="url(#paint1_linear_4016_2808)"/>
<path d="M102.311 19.0363L93.2907 0.5625H89.3594V26.6455H93.4524V9.92798L101.44 26.6455H103.178L111.184 9.92798V26.6455H115.262V0.5625H111.331L102.311 19.0363Z" fill="#050505"/>
<path d="M135.724 10.1982C135.119 8.93953 134.073 7.94703 132.784 7.40953C131.327 6.81509 129.764 6.52501 128.192 6.55708C125.884 6.55708 124.047 7.05802 122.68 8.05986C121.337 9.03973 120.363 10.4443 119.917 12.0463L123.904 13.2956C124.028 12.8426 124.246 12.4204 124.542 12.0555C124.837 11.6907 125.206 11.3911 125.623 11.1756C126.415 10.774 127.29 10.5638 128.177 10.562C129.647 10.562 130.675 10.8816 131.293 11.5209C131.85 12.173 132.162 12.9997 132.174 13.8577L129.871 14.192C128.631 14.3684 127.484 14.5582 126.428 14.7616C125.494 14.9373 124.572 15.168 123.665 15.4523C122.743 15.7407 121.884 16.1979 121.13 16.8007C120.496 17.3267 119.999 17.9987 119.682 18.7591C119.357 19.5666 119.197 20.4311 119.212 21.3016C119.199 22.3284 119.452 23.3411 119.947 24.2409C120.464 25.1503 121.228 25.8943 122.151 26.3866C123.259 26.9534 124.493 27.2302 125.737 27.1913C127.267 27.245 128.785 26.906 130.146 26.2066C131.106 25.6465 131.941 24.8964 132.601 24.0021V26.6365H136.422V14.655C136.425 13.871 136.388 13.0874 136.311 12.3072C136.249 11.5737 136.049 10.8584 135.724 10.1982ZM131.7 20.4859C131.513 21.0123 131.227 21.4985 130.859 21.9189C130.398 22.4608 129.827 22.899 129.184 23.2048C128.391 23.5744 127.523 23.7543 126.648 23.7302C126.055 23.748 125.464 23.6364 124.918 23.4032C124.489 23.2162 124.122 22.9118 123.86 22.5251C123.612 22.1452 123.484 21.6998 123.492 21.2465C123.483 20.86 123.581 20.4786 123.775 20.1442C123.979 19.8104 124.254 19.5257 124.58 19.3102C124.98 19.044 125.412 18.8303 125.866 18.6746C126.454 18.487 127.053 18.3336 127.659 18.2153C128.335 18.0757 129.144 17.9274 130.087 17.7707C130.686 17.6715 131.373 17.5576 132.127 17.44C132.127 17.7707 132.105 18.1455 132.086 18.5754C132.072 19.2301 131.941 19.877 131.7 20.4859Z" fill="#050505"/>
<path d="M158.494 11.4997C158.219 10.6388 157.802 9.83023 157.259 9.10781C156.662 8.33135 155.894 7.70277 155.014 7.27072C153.894 6.74668 152.665 6.49489 151.428 6.53589C149.799 6.48188 148.188 6.9004 146.792 7.74102C146.131 8.16061 145.539 8.67849 145.035 9.27683V7.09804H141.141V26.6594H145.55V16.6068C145.522 15.612 145.656 14.6193 145.946 13.6675C146.159 12.9912 146.522 12.3719 147.008 11.8561C147.419 11.4347 147.922 11.1151 148.478 10.9229C149.01 10.7443 149.567 10.6524 150.128 10.651C151.003 10.6041 151.87 10.8399 152.6 11.3233C153.204 11.7612 153.679 12.3523 153.978 13.0355C154.283 13.7229 154.481 14.4526 154.566 15.1996C154.646 15.8789 154.688 16.5621 154.691 17.2461V26.663H159.1V15.7397C159.092 15.1257 159.053 14.5126 158.982 13.9026C158.9 13.0873 158.737 12.2823 158.494 11.4997Z" fill="#050505"/>
<path d="M176.712 8.0431L176.521 7.89617C175.142 6.96319 173.504 6.49113 171.84 6.54771C170.136 6.5081 168.459 6.97759 167.023 7.89617C165.649 8.80476 164.554 10.0766 163.86 11.5703C163.128 13.2363 162.75 15.0361 162.75 16.8556C162.75 18.6752 163.128 20.475 163.86 22.1409C164.541 23.6344 165.619 24.9128 166.975 25.8371C168.403 26.7235 170.049 27.1932 171.73 27.1932C173.41 27.1932 175.057 26.7235 176.484 25.8371C176.756 25.644 177.016 25.4342 177.263 25.2089V26.6492H181.121V0.5625H176.712V8.0431ZM176.756 20.223C176.486 21.1627 175.9 21.9804 175.096 22.538C174.293 23.0956 173.322 23.3589 172.347 23.2836C171.342 23.3243 170.354 23.0253 169.54 22.4349C168.782 21.8385 168.213 21.0359 167.901 20.1238C167.532 19.0801 167.35 17.9792 167.365 16.8721C167.351 15.7705 167.535 14.6753 167.909 13.6389C168.233 12.7186 168.819 11.9129 169.595 11.3205C170.439 10.7219 171.457 10.4196 172.49 10.4607C173.461 10.4175 174.418 10.7008 175.209 11.2654C175.937 11.8443 176.476 12.6272 176.756 13.514C177.422 15.7007 177.422 18.0363 176.756 20.223Z" fill="#050505"/>
<path d="M201.615 10.1982C201.009 8.9408 199.964 7.94881 198.676 7.40955C197.221 6.81481 195.659 6.52469 194.087 6.55714C191.78 6.55714 189.943 7.05804 188.576 8.05988C187.234 9.04114 186.263 10.4454 185.817 12.0464L189.799 13.2956C189.925 12.8428 190.144 12.4208 190.44 12.0561C190.737 11.6913 191.105 11.3916 191.523 11.1756C192.319 10.7712 193.201 10.561 194.094 10.562C195.564 10.562 196.603 10.8816 197.21 11.5209C197.766 12.174 198.078 13.0001 198.092 13.8577L195.788 14.1921C194.549 14.3684 193.401 14.5583 192.346 14.7616C191.412 14.9369 190.489 15.1676 189.583 15.4523C188.661 15.7392 187.801 16.1966 187.047 16.8007C186.412 17.3257 185.915 17.998 185.6 18.7591C185.273 19.5664 185.112 20.4309 185.126 21.3016C185.113 22.3284 185.366 23.341 185.861 24.2409C186.377 25.1509 187.141 25.8952 188.065 26.3867C189.173 26.9543 190.407 27.2311 191.651 27.1913C193.181 27.2461 194.699 26.9071 196.06 26.2066C197.021 25.6483 197.856 24.8979 198.515 24.0021V26.6365H202.339V14.655C202.342 13.8711 202.306 13.0875 202.229 12.3072C202.156 11.5724 201.948 10.8573 201.615 10.1982ZM197.574 20.4859C197.385 21.0116 197.1 21.4976 196.733 21.9189C196.269 22.4588 195.699 22.8967 195.057 23.2048C194.264 23.574 193.396 23.7539 192.522 23.7302C191.928 23.7487 191.337 23.6371 190.791 23.4032C190.362 23.2163 189.994 22.912 189.73 22.5251C189.484 22.1445 189.356 21.6996 189.362 21.2465C189.352 20.8604 189.449 20.479 189.641 20.1442C189.846 19.8104 190.122 19.5257 190.45 19.3102C190.849 19.044 191.282 18.8304 191.736 18.6746C192.324 18.487 192.923 18.3336 193.529 18.2153C194.205 18.0757 195.013 17.9275 195.954 17.7707C196.556 17.6715 197.24 17.5576 197.993 17.44C197.993 17.7707 197.993 18.1455 197.956 18.5754C197.949 19.2287 197.826 19.8757 197.592 20.4859H197.574Z" fill="#050505"/>
<path d="M211.787 0.03125H207.422V26.658H211.787V0.03125Z" fill="#050505"/>
<path d="M102.311 52.0321L93.2907 33.5547H89.3594V59.6377H93.4524V42.9202L101.44 59.6377H103.178L111.184 42.9202V59.6377H115.262V33.5547H111.331L102.311 52.0321Z" fill="#050505"/>
<path d="M125.029 40.0547H120.664V59.616H125.029V40.0547Z" fill="#050505"/>
<path d="M125.029 33.1016H120.664V37.1064H125.029V33.1016Z" fill="#050505"/>
<path d="M147.783 44.4572C147.511 43.5974 147.094 42.7898 146.552 42.0689C145.956 41.2904 145.188 40.6614 144.307 40.2319C143.186 39.7061 141.955 39.4544 140.717 39.497C139.088 39.4419 137.478 39.8593 136.081 40.6985C135.423 41.121 134.831 41.6387 134.324 42.2343V40.0555H130.43V59.6205H134.839V49.5679C134.81 48.573 134.946 47.5798 135.239 46.6286C135.45 45.9525 135.812 45.3334 136.297 44.8172C136.707 44.3958 137.211 44.0776 137.767 43.8877C138.297 43.7073 138.853 43.6154 139.413 43.6158C140.288 43.5695 141.154 43.8039 141.886 44.2845C142.489 44.7232 142.964 45.314 143.264 45.9966C143.57 46.6833 143.768 47.4134 143.851 48.1607C143.932 48.8401 143.975 49.5231 143.98 50.2072V59.6205H148.389V48.6972C148.389 48.2269 148.349 47.6133 148.271 46.8601C148.188 46.0451 148.024 45.2401 147.783 44.4572Z" fill="#050505"/>
<path d="M165.995 41.0353C165.936 40.9831 165.873 40.9343 165.808 40.8883C164.429 39.9533 162.789 39.4797 161.123 39.5362C159.419 39.4966 157.741 39.9676 156.307 40.8883C154.934 41.7973 153.84 43.0693 153.147 44.5625C152.416 46.228 152.039 48.0273 152.039 49.846C152.039 51.6647 152.416 53.4639 153.147 55.1295C153.829 56.6223 154.907 57.9002 156.263 58.8257C157.689 59.7141 159.336 60.1851 161.017 60.1851C162.697 60.1851 164.345 59.7141 165.771 58.8257C166.044 58.6324 166.304 58.4226 166.55 58.1974V59.6413H170.408V33.5547H165.999L165.995 41.0353ZM166.043 53.2152C165.771 54.154 165.184 54.9704 164.382 55.5274C163.579 56.0847 162.609 56.3489 161.634 56.2758C160.629 56.3147 159.641 56.0146 158.827 55.4234C158.07 54.8267 157.501 54.0243 157.188 53.1123C156.82 52.0685 156.64 50.9673 156.656 49.8607C156.641 48.7603 156.825 47.6661 157.199 46.6311C157.522 45.7103 158.107 44.9046 158.882 44.3127C159.726 43.7108 160.746 43.407 161.781 43.4492C162.751 43.4055 163.708 43.6903 164.496 44.2576C165.225 44.8348 165.765 45.6166 166.047 46.5025C166.708 48.6912 166.708 51.0265 166.047 53.2152H166.043Z" fill="#050505"/>
<path d="M190.488 51.2729C189.994 50.4859 189.292 49.8502 188.46 49.4358C187.274 48.8284 186.018 48.3684 184.72 48.0653C183.199 47.6806 182.055 47.3551 181.288 47.088C180.725 46.9362 180.203 46.6644 179.756 46.2907C179.634 46.1632 179.539 46.0126 179.476 45.8479C179.413 45.6833 179.383 45.5081 179.388 45.3317C179.385 45.0117 179.471 44.6968 179.637 44.4235C179.803 44.1501 180.043 43.9286 180.329 43.7849C181.091 43.3866 181.955 43.2253 182.809 43.322C183.728 43.333 184.624 43.6166 185.381 44.1376C185.697 44.3695 185.96 44.6649 186.156 45.0047C186.35 45.3442 186.472 45.7212 186.513 46.1107L190.969 45.3134C190.82 44.1872 190.355 43.1265 189.628 42.2528C188.859 41.353 187.872 40.6641 186.762 40.2503C185.473 39.7584 184.101 39.5177 182.721 39.5412C181.338 39.5129 179.964 39.7628 178.679 40.2761C177.606 40.7067 176.678 41.4331 176.001 42.3703C175.349 43.3028 175.012 44.4187 175.038 45.5559C175.013 46.4329 175.233 47.2996 175.674 48.058C176.193 48.8303 176.914 49.4464 177.757 49.8399C179.008 50.4447 180.32 50.9154 181.67 51.2435C183.14 51.6282 184.232 51.9478 184.947 52.2024C185.47 52.3413 185.947 52.6136 186.333 52.9924C186.558 53.3047 186.671 53.6842 186.652 54.0689C186.663 54.4036 186.589 54.7358 186.438 55.0349C186.288 55.3339 186.064 55.5904 185.789 55.7811C185.062 56.2393 184.21 56.4579 183.353 56.4057C182.3 56.4479 181.261 56.1562 180.384 55.5717C179.607 55.0304 179.064 54.2155 178.863 53.29L174.406 53.9807C174.53 54.8912 174.838 55.7671 175.311 56.5549C175.784 57.3426 176.413 58.0256 177.158 58.5624C178.67 59.65 180.629 60.1938 183.037 60.1938C185.563 60.1938 187.54 59.6316 188.971 58.5073C190.401 57.383 191.116 55.8373 191.116 53.8705C191.144 52.9641 190.926 52.0669 190.488 51.2729Z" fill="#050505"/>
</g>
<defs>
<linearGradient id="paint0_linear_4016_2808" x1="30.905" y1="35.9616" x2="22.6345" y2="29.179" gradientUnits="userSpaceOnUse">
<stop stop-color="#7C00FF"/>
<stop offset="1" stop-color="#37007F"/>
</linearGradient>
<linearGradient id="paint1_linear_4016_2808" x1="60.417" y1="40.927" x2="63.9773" y2="23.8385" gradientUnits="userSpaceOnUse">
<stop stop-color="#7C00FF"/>
<stop offset="1" stop-color="#37007F"/>
</linearGradient>
<clipPath id="clip0_4016_2808">
<rect width="212" height="60.2565" fill="white" transform="translate(0 0.03125)"/>
</clipPath>
</defs>
</svg>
