<svg width="108" height="78" viewBox="0 0 108 78" fill="none" xmlns="http://www.w3.org/2000/svg">
<path d="M100.873 51.7641C100.342 52.3785 95.13 58.0315 83.1645 58.0315H82.8822C80.6829 58.0311 78.4913 57.7706 76.3538 57.2553L76.0858 57.1934C76.0288 57.1834 75.9728 57.1691 75.9183 57.1505L75.4397 57.0171C75.1286 56.9314 74.827 56.8362 74.5351 56.7362C74.1282 56.6028 73.7358 56.4552 73.3529 56.3075C77.167 51.0103 79.7262 44.9225 80.8385 38.5007C81.2879 35.8766 81.3683 33.203 81.0778 30.5569C80.983 29.7407 80.8375 28.9311 80.6422 28.1328C78.9862 21.2748 74.0469 17.1172 67.3175 17.1172C64.4362 17.1161 61.6459 18.1186 59.4299 19.9509C55.1846 23.3942 52.5043 29.6949 52.4756 37.3719C52.4292 43.3734 54.1369 49.2591 57.391 54.3121L57.8265 54.955C57.9558 55.136 58.0898 55.3169 58.2238 55.4884C58.3578 55.6598 58.4822 55.8408 58.6115 56.0075C59.0183 56.5504 59.4586 57.0791 59.9229 57.5934C58.8426 58.4426 57.7021 59.2131 56.5103 59.8984C55.0233 60.7566 53.4558 61.4677 51.8295 62.0225C51.1163 62.2654 50.3936 62.4987 49.6518 62.6511C47.2134 63.2831 44.6586 63.3274 42.1997 62.7797H42.1519C41.5355 62.6302 40.9295 62.4411 40.3379 62.213C41.4573 60.4537 42.3999 58.5888 43.1522 56.6457C44.6686 52.769 45.4178 48.6371 45.3586 44.4776C45.3378 40.8095 44.4889 37.193 42.8746 33.8954C40.3427 28.9043 36.083 25.9659 31.1963 25.8278C28.8789 25.7102 26.5787 26.2815 24.5885 27.4688C22.5983 28.6562 21.0083 30.4058 20.0206 32.4952C19.2853 33.9995 18.7804 35.6047 18.5225 37.2577C17.2542 44.8776 20.0301 54.8788 25.8549 62.1225L26.0129 62.3178C26.3575 62.7416 26.7021 63.1417 27.0562 63.537V63.5608C23.9571 65.7906 20.4221 67.3479 16.6799 68.1327C15.5216 68.3899 14.2868 68.609 12.9993 68.7614C9.01058 69.2029 4.98383 69.1805 1.00035 68.6947L0 77.5767C2.46608 77.8567 4.94607 77.9982 7.42813 78.0006C10.1522 78.0101 12.8727 77.8062 15.5646 77.391C15.9379 77.3386 16.297 77.2767 16.6559 77.2052C24.6249 75.7765 30.2869 72.5809 34.2259 69.2281C39.5961 72.1227 45.8691 72.8852 51.7816 71.3617C53.2663 71.0007 54.7261 70.5444 56.1514 69.9949C58.3229 69.1562 60.4072 68.1084 62.3734 66.8659C64.0634 65.7991 65.6639 64.5985 67.1596 63.275C71.4049 65.5753 76.6171 66.9612 82.8343 67.0088H83.1789C100.237 67.0088 107.689 57.6744 108 57.2743L100.873 51.7641ZM35.5661 51.2212C35.0188 53.18 34.2142 55.0583 33.173 56.8076L32.9145 56.4933C32.3479 55.7889 31.8222 55.0526 31.3399 54.2883L31.0958 53.893C31.0723 53.8615 31.0515 53.8277 31.0336 53.793L30.9857 53.712C30.9613 53.6768 30.9389 53.6401 30.9187 53.6025C28.2289 49.0876 27.0323 44.0061 27.2382 40.1914C27.265 38.8935 27.5582 37.6148 28.0997 36.4337C28.3098 35.8955 28.6886 35.439 29.18 35.1319C29.6714 34.8248 30.2493 34.6835 30.8278 34.7288H30.9905C32.9336 34.786 34.1973 36.4814 34.9056 37.8911C35.7203 39.6026 36.2072 41.4502 36.3415 43.3393C36.5647 45.9917 36.302 48.6624 35.5661 51.2212ZM72.0415 37.0243C71.2695 41.4644 69.6077 45.7045 67.1548 49.4925C66.8102 50.0354 66.4512 50.5592 66.0875 51.0736C62.7946 47.1255 61.4353 42.0582 61.4545 37.3862C61.4545 32.2999 63.211 27.9804 65.5849 26.5421C66.1033 26.2144 66.7035 26.0379 67.3175 26.0325C68.2077 26.0325 70.261 26.0326 71.4384 28.6995C71.8218 29.6294 72.0688 30.6094 72.1707 31.6094C72.3684 33.4126 72.32 35.234 72.0271 37.0243H72.0415Z" fill="#37007F"/>
<path d="M28.9707 23.7348C33.0837 23.7348 36.418 20.4171 36.418 16.3245C36.418 12.2318 33.0837 8.91406 28.9707 8.91406C24.8577 8.91406 21.5234 12.2318 21.5234 16.3245C21.5234 20.4171 24.8577 23.7348 28.9707 23.7348Z" fill="#7C00FF"/>
<path d="M66.8848 14.8208C70.998 14.8208 74.3321 11.5031 74.3321 7.41039C74.3321 3.31775 70.998 0 66.8848 0C62.7716 0 59.4375 3.31775 59.4375 7.41039C59.4375 11.5031 62.7716 14.8208 66.8848 14.8208Z" fill="#7C00FF"/>
<path d="M76.0859 57.1953L76.354 57.262C76.2535 57.2429 76.1721 57.2239 76.0859 57.1953Z" fill="#0AC786"/>
<path d="M57.4141 54.2969C57.5576 54.5159 57.706 54.7255 57.8544 54.9398C57.706 54.7303 57.5576 54.4969 57.4141 54.2969Z" fill="#0AC786"/>
<path d="M34.2355 69.1877C31.5671 67.6704 29.1463 65.7578 27.0563 63.5156C23.8636 65.8068 20.2143 67.3904 16.3544 68.159L16.2539 68.1828L15.3972 68.3495L15.1387 68.3971C14.8563 68.4495 14.5739 68.4924 14.2868 68.54L14.1001 68.5686C13.7411 68.621 13.3726 68.6734 12.9993 68.7162C9.01025 69.1534 4.98383 69.1296 1.00035 68.6448L0 77.5268C2.466 77.8083 4.94597 77.9516 7.42813 77.9554C10.1521 77.9626 12.8725 77.7587 15.5646 77.3458C15.9379 77.2887 16.297 77.2268 16.6559 77.1601C24.6297 75.7266 30.2965 72.5357 34.2355 69.1877Z" fill="#7C00FF"/>
<path d="M43.7458 54.9921C43.8846 54.5635 44.0187 54.1396 44.1383 53.7062C44.1383 53.6729 44.1383 53.6443 44.1718 53.611C44.2962 53.1347 44.4159 52.6918 44.5212 52.2346L44.6074 51.8489C44.6839 51.506 44.7557 51.1678 44.8179 50.8249C44.8466 50.6821 44.8706 50.5392 44.8945 50.3963C44.9711 49.9867 45.0333 49.5724 45.0908 49.1581C45.0908 49.1104 45.0908 49.0628 45.0908 49.0152C45.1482 48.5628 45.196 48.1151 45.2343 47.6627C45.2343 47.515 45.2343 47.3626 45.2679 47.2149C45.2679 46.9006 45.3061 46.5863 45.3205 46.2624C45.3205 46.1005 45.3205 45.9386 45.3205 45.7862C45.3205 45.4243 45.3205 45.0575 45.3205 44.6956C45.3205 44.6146 45.3205 44.5384 45.3205 44.4575C45.2992 40.7895 44.4503 37.1731 42.8364 33.8753C40.3045 28.889 36.0449 25.9458 31.1582 25.8124C28.8404 25.693 26.5394 26.2634 24.5489 27.451C22.5584 28.6385 20.9686 30.3893 19.9824 32.4799C19.2476 33.9843 18.7427 35.5895 18.4844 37.2423L27.1522 40.2236C27.1785 38.9273 27.4717 37.65 28.0136 36.4708C28.2225 35.9317 28.6011 35.4743 29.0928 35.167C29.5846 34.8597 30.1631 34.719 30.7418 34.7659H30.9045C32.8477 34.8182 34.1112 36.5184 34.8196 37.9234C35.6342 39.6366 36.1211 41.4858 36.2554 43.3764V43.5574C36.2554 43.7669 36.2842 43.9812 36.2938 44.1955C36.3033 44.4098 36.2938 44.5051 36.2938 44.6718C36.2938 44.8385 36.2938 44.929 36.2938 45.0623C36.2938 45.1957 36.2938 45.4004 36.2938 45.5719C36.2938 45.7433 36.2938 45.8148 36.2938 45.9338C36.2938 46.0529 36.2938 46.2863 36.2938 46.4672L36.265 46.8197C36.265 47.0054 36.2651 47.1864 36.222 47.3673L36.1789 47.7246C36.1454 48.0246 36.1023 48.3246 36.0545 48.6294C36.0258 48.7961 36.0018 48.9676 35.9683 49.139C35.9348 49.3105 35.9157 49.4152 35.887 49.5534L35.772 50.101C35.7433 50.2249 35.7098 50.3534 35.6763 50.482C35.6285 50.6854 35.5758 50.8902 35.5184 51.0964C34.9659 53.1142 34.1433 55.0492 33.0727 56.8494C34.7909 58.964 37.3802 61.5214 40.2519 62.2358C41.369 60.4742 42.3099 58.6077 43.0614 56.6637L43.1141 56.5208C43.2577 56.1351 43.4012 55.7493 43.5305 55.3588L43.7458 54.9921Z" fill="url(#paint0_linear_4016_2790)"/>
<path d="M107.979 57.234C107.668 57.634 100.216 66.9685 83.1583 66.9685H82.8137C76.8932 66.9256 71.8821 65.6683 67.7564 63.5538H67.7277C67.5266 63.4585 67.3352 63.3538 67.139 63.249C65.5547 62.2679 61.6205 59.0247 59.9214 57.6055H59.9501C59.4715 57.0911 59.0455 56.5625 58.6387 56.0196C58.5095 55.8529 58.3755 55.6814 58.251 55.5005C58.1266 55.3195 57.983 55.148 57.8538 54.9671L57.4182 54.3241C54.1545 49.2626 52.443 43.3645 52.4933 37.3508C52.522 29.6737 55.2022 23.3729 59.4476 19.9297C61.4338 22.049 63.8796 24.6683 65.6026 26.54C63.2095 27.9687 61.4865 32.2978 61.4721 37.3841C61.4343 40.9883 62.2714 44.5484 63.9131 47.7615L64.0232 47.9758C64.1045 48.1377 64.1955 48.3092 64.296 48.4758C64.6128 49.0326 64.9632 49.5703 65.3441 50.0856C65.4494 50.238 65.5595 50.3856 65.6696 50.5285C65.7797 50.6713 65.9089 50.8333 66.0381 51.0047L66.1051 51.0904C68.0316 53.4298 70.5328 55.2342 73.3658 56.3291C73.7487 56.4768 74.1411 56.6244 74.548 56.7578C74.8399 56.8578 75.1414 56.953 75.4525 57.0387L75.9312 57.1721C75.9857 57.1907 76.0417 57.205 76.0987 57.215L76.3667 57.2769C78.5042 57.7922 80.6958 58.0527 82.895 58.0531H83.1774C95.1716 58.0531 100.36 52.4001 100.886 51.7858L107.979 57.234Z" fill="url(#paint1_linear_4016_2790)"/>
<defs>
<linearGradient id="paint0_linear_4016_2790" x1="40.2615" y1="46.5672" x2="29.5309" y2="37.7235" gradientUnits="userSpaceOnUse">
<stop stop-color="#7C00FF"/>
<stop offset="1" stop-color="#37007F"/>
</linearGradient>
<linearGradient id="paint1_linear_4016_2790" x1="78.7119" y1="53.0097" x2="83.3058" y2="30.8504" gradientUnits="userSpaceOnUse">
<stop stop-color="#7C00FF"/>
<stop offset="1" stop-color="#37007F"/>
</linearGradient>
</defs>
</svg>
